<mxfile host="app.diagrams.net" modified="2022-11-10T10:12:37.990Z" agent="5.0 (Windows NT 10.0; Win64; x64) AppleWebKit/537.36 (KHTML, like Gecko) Chrome/107.0.0.0 Safari/537.36" etag="dBTKp1G6D5TJlNQ1fnYP" version="20.5.1" type="github">
  <diagram name="Page-1" id="d66fe2ae-3e9f-cf2f-6d29-e24063ad5d60">
    <mxGraphModel dx="4329" dy="2591" grid="1" gridSize="10" guides="1" tooltips="1" connect="1" arrows="1" fold="1" page="1" pageScale="1" pageWidth="1169" pageHeight="827" background="none" math="0" shadow="0">
      <root>
        <mxCell id="0" />
        <mxCell id="1" parent="0" />
        <mxCell id="_rqUwPPVyV0f_OZzev6--42" value="" style="rounded=0;whiteSpace=wrap;html=1;fontSize=22;" vertex="1" parent="1">
          <mxGeometry x="720" y="-280" width="1390" height="920" as="geometry" />
        </mxCell>
        <mxCell id="_rqUwPPVyV0f_OZzev6--41" value="" style="rounded=0;whiteSpace=wrap;html=1;fontSize=22;" vertex="1" parent="1">
          <mxGeometry x="-1090" y="-280" width="1390" height="920" as="geometry" />
        </mxCell>
        <mxCell id="_rqUwPPVyV0f_OZzev6--1" value="&lt;b&gt;&lt;font style=&quot;font-size: 22px;&quot;&gt;TINC 节点&lt;/font&gt;&lt;/b&gt;" style="fontColor=#0066CC;verticalAlign=top;verticalLabelPosition=bottom;labelPosition=center;align=center;html=1;outlineConnect=0;fillColor=#CCCCCC;strokeColor=#6881B3;gradientColor=none;gradientDirection=north;strokeWidth=2;shape=mxgraph.networks.server;" vertex="1" parent="1">
          <mxGeometry x="90" y="230" width="90" height="100" as="geometry" />
        </mxCell>
        <mxCell id="_rqUwPPVyV0f_OZzev6--2" value="&lt;b&gt;&lt;font style=&quot;font-size: 22px;&quot;&gt;TINC节点&lt;/font&gt;&lt;/b&gt;" style="fontColor=#0066CC;verticalAlign=top;verticalLabelPosition=bottom;labelPosition=center;align=center;html=1;outlineConnect=0;fillColor=#CCCCCC;strokeColor=#6881B3;gradientColor=none;gradientDirection=north;strokeWidth=2;shape=mxgraph.networks.server;" vertex="1" parent="1">
          <mxGeometry x="830" y="230" width="90" height="100" as="geometry" />
        </mxCell>
        <mxCell id="_rqUwPPVyV0f_OZzev6--3" value="&lt;b&gt;&lt;font style=&quot;font-size: 22px;&quot;&gt;TINC节点&lt;/font&gt;&lt;/b&gt;" style="fontColor=#0066CC;verticalAlign=top;verticalLabelPosition=bottom;labelPosition=center;align=center;html=1;outlineConnect=0;fillColor=#CCCCCC;strokeColor=#6881B3;gradientColor=none;gradientDirection=north;strokeWidth=2;shape=mxgraph.networks.server;" vertex="1" parent="1">
          <mxGeometry x="465" y="610" width="90" height="100" as="geometry" />
        </mxCell>
        <mxCell id="_rqUwPPVyV0f_OZzev6--4" value="" style="shape=link;html=1;rounded=0;exitX=0.5;exitY=1;exitDx=0;exitDy=0;exitPerimeter=0;entryX=0;entryY=0.5;entryDx=0;entryDy=0;entryPerimeter=0;" edge="1" parent="1" source="_rqUwPPVyV0f_OZzev6--1" target="_rqUwPPVyV0f_OZzev6--3">
          <mxGeometry width="100" relative="1" as="geometry">
            <mxPoint x="290" y="440" as="sourcePoint" />
            <mxPoint x="390" y="440" as="targetPoint" />
          </mxGeometry>
        </mxCell>
        <mxCell id="_rqUwPPVyV0f_OZzev6--5" value="" style="shape=link;html=1;rounded=0;exitX=1;exitY=0.5;exitDx=0;exitDy=0;exitPerimeter=0;entryX=0.5;entryY=1;entryDx=0;entryDy=0;entryPerimeter=0;" edge="1" parent="1" source="_rqUwPPVyV0f_OZzev6--3" target="_rqUwPPVyV0f_OZzev6--2">
          <mxGeometry width="100" relative="1" as="geometry">
            <mxPoint x="680" y="480" as="sourcePoint" />
            <mxPoint x="780" y="480" as="targetPoint" />
          </mxGeometry>
        </mxCell>
        <mxCell id="_rqUwPPVyV0f_OZzev6--6" value="" style="shape=link;html=1;rounded=0;exitX=1;exitY=0.5;exitDx=0;exitDy=0;exitPerimeter=0;entryX=0;entryY=0.5;entryDx=0;entryDy=0;entryPerimeter=0;" edge="1" parent="1" source="_rqUwPPVyV0f_OZzev6--1" target="_rqUwPPVyV0f_OZzev6--2">
          <mxGeometry width="100" relative="1" as="geometry">
            <mxPoint x="310" y="490" as="sourcePoint" />
            <mxPoint x="410" y="490" as="targetPoint" />
          </mxGeometry>
        </mxCell>
        <mxCell id="_rqUwPPVyV0f_OZzev6--8" value="&lt;font style=&quot;font-size: 52px;&quot;&gt;家1&lt;/font&gt;" style="text;html=1;strokeColor=none;fillColor=none;align=center;verticalAlign=middle;whiteSpace=wrap;rounded=0;" vertex="1" parent="1">
          <mxGeometry x="90" y="580" width="170" height="30" as="geometry" />
        </mxCell>
        <mxCell id="_rqUwPPVyV0f_OZzev6--10" value="&lt;b&gt;&lt;font style=&quot;font-size: 32px;&quot;&gt;VPS&lt;/font&gt;&lt;/b&gt;" style="text;html=1;strokeColor=none;fillColor=none;align=center;verticalAlign=middle;whiteSpace=wrap;rounded=0;" vertex="1" parent="1">
          <mxGeometry x="570" y="690" width="60" height="30" as="geometry" />
        </mxCell>
        <mxCell id="_rqUwPPVyV0f_OZzev6--11" value="&lt;b&gt;&lt;font style=&quot;font-size: 52px;&quot;&gt;TINC网络&lt;/font&gt;&lt;/b&gt;" style="text;html=1;strokeColor=none;fillColor=none;align=center;verticalAlign=middle;whiteSpace=wrap;rounded=0;" vertex="1" parent="1">
          <mxGeometry x="340" y="411" width="310" height="30" as="geometry" />
        </mxCell>
        <mxCell id="_rqUwPPVyV0f_OZzev6--12" value="&lt;b&gt;&lt;font style=&quot;font-size: 22px;&quot;&gt;防火墙&lt;/font&gt;&lt;/b&gt;" style="fontColor=#0066CC;verticalAlign=top;verticalLabelPosition=bottom;labelPosition=center;align=center;html=1;outlineConnect=0;fillColor=#CCCCCC;strokeColor=#6881B3;gradientColor=none;gradientDirection=north;strokeWidth=2;shape=mxgraph.networks.firewall;" vertex="1" parent="1">
          <mxGeometry x="-200" y="160" width="100" height="100" as="geometry" />
        </mxCell>
        <mxCell id="_rqUwPPVyV0f_OZzev6--13" value="&lt;b&gt;&lt;font style=&quot;font-size: 22px;&quot;&gt;防火墙&lt;/font&gt;&lt;/b&gt;" style="fontColor=#0066CC;verticalAlign=top;verticalLabelPosition=bottom;labelPosition=center;align=center;html=1;outlineConnect=0;fillColor=#CCCCCC;strokeColor=#6881B3;gradientColor=none;gradientDirection=north;strokeWidth=2;shape=mxgraph.networks.firewall;" vertex="1" parent="1">
          <mxGeometry x="1040" y="160" width="100" height="100" as="geometry" />
        </mxCell>
        <mxCell id="_rqUwPPVyV0f_OZzev6--16" value="&lt;b&gt;&lt;font style=&quot;font-size: 22px;&quot;&gt;路由器&lt;/font&gt;&lt;/b&gt;" style="fontColor=#0066CC;verticalAlign=top;verticalLabelPosition=bottom;labelPosition=center;align=center;html=1;outlineConnect=0;fillColor=#CCCCCC;strokeColor=#6881B3;gradientColor=none;gradientDirection=north;strokeWidth=2;shape=mxgraph.networks.router;" vertex="1" parent="1">
          <mxGeometry x="-400" y="200" width="100" height="30" as="geometry" />
        </mxCell>
        <mxCell id="_rqUwPPVyV0f_OZzev6--17" value="&lt;b&gt;&lt;font style=&quot;font-size: 22px;&quot;&gt;路由器&lt;/font&gt;&lt;/b&gt;" style="fontColor=#0066CC;verticalAlign=top;verticalLabelPosition=bottom;labelPosition=center;align=center;html=1;outlineConnect=0;fillColor=#CCCCCC;strokeColor=#6881B3;gradientColor=none;gradientDirection=north;strokeWidth=2;shape=mxgraph.networks.router;" vertex="1" parent="1">
          <mxGeometry x="1280" y="195" width="100" height="30" as="geometry" />
        </mxCell>
        <mxCell id="_rqUwPPVyV0f_OZzev6--18" value="&lt;b&gt;&lt;font style=&quot;font-size: 22px;&quot;&gt;交换机&lt;/font&gt;&lt;/b&gt;" style="fontColor=#0066CC;verticalAlign=top;verticalLabelPosition=bottom;labelPosition=center;align=center;html=1;outlineConnect=0;fillColor=#CCCCCC;strokeColor=#6881B3;gradientColor=none;gradientDirection=north;strokeWidth=2;shape=mxgraph.networks.switch;" vertex="1" parent="1">
          <mxGeometry x="1510" y="195" width="100" height="30" as="geometry" />
        </mxCell>
        <mxCell id="_rqUwPPVyV0f_OZzev6--19" value="&lt;b&gt;&lt;font style=&quot;font-size: 22px;&quot;&gt;交换机&lt;/font&gt;&lt;/b&gt;" style="fontColor=#0066CC;verticalAlign=top;verticalLabelPosition=bottom;labelPosition=center;align=center;html=1;outlineConnect=0;fillColor=#CCCCCC;strokeColor=#6881B3;gradientColor=none;gradientDirection=north;strokeWidth=2;shape=mxgraph.networks.switch;" vertex="1" parent="1">
          <mxGeometry x="-630" y="200" width="100" height="30" as="geometry" />
        </mxCell>
        <mxCell id="_rqUwPPVyV0f_OZzev6--24" value="&lt;b&gt;&lt;font style=&quot;font-size: 22px;&quot;&gt;无线AP&lt;/font&gt;&lt;/b&gt;" style="fontColor=#0066CC;verticalAlign=top;verticalLabelPosition=bottom;labelPosition=center;align=center;html=1;outlineConnect=0;fillColor=#CCCCCC;strokeColor=#6881B3;gradientColor=none;gradientDirection=north;strokeWidth=2;shape=mxgraph.networks.wireless_hub;" vertex="1" parent="1">
          <mxGeometry x="-630" y="411" width="100" height="89" as="geometry" />
        </mxCell>
        <mxCell id="_rqUwPPVyV0f_OZzev6--27" value="&lt;b&gt;&lt;font style=&quot;font-size: 22px;&quot;&gt;服务器&lt;/font&gt;&lt;/b&gt;" style="fontColor=#0066CC;verticalAlign=top;verticalLabelPosition=bottom;labelPosition=center;align=center;html=1;outlineConnect=0;fillColor=#CCCCCC;strokeColor=#6881B3;gradientColor=none;gradientDirection=north;strokeWidth=2;shape=mxgraph.networks.desktop_pc;" vertex="1" parent="1">
          <mxGeometry x="1610" y="330" width="30" height="60" as="geometry" />
        </mxCell>
        <mxCell id="_rqUwPPVyV0f_OZzev6--28" value="&lt;b&gt;&lt;font style=&quot;font-size: 22px;&quot;&gt;服务器&lt;/font&gt;&lt;/b&gt;" style="fontColor=#0066CC;verticalAlign=top;verticalLabelPosition=bottom;labelPosition=center;align=center;html=1;outlineConnect=0;fillColor=#CCCCCC;strokeColor=#6881B3;gradientColor=none;gradientDirection=north;strokeWidth=2;shape=mxgraph.networks.desktop_pc;" vertex="1" parent="1">
          <mxGeometry x="-810" y="370" width="30" height="60" as="geometry" />
        </mxCell>
        <mxCell id="_rqUwPPVyV0f_OZzev6--29" value="&lt;b&gt;&lt;font style=&quot;font-size: 22px;&quot;&gt;服务器&lt;/font&gt;&lt;/b&gt;" style="fontColor=#0066CC;verticalAlign=top;verticalLabelPosition=bottom;labelPosition=center;align=center;html=1;outlineConnect=0;fillColor=#CCCCCC;strokeColor=#6881B3;gradientColor=none;gradientDirection=north;strokeWidth=2;shape=mxgraph.networks.desktop_pc;" vertex="1" parent="1">
          <mxGeometry x="-980" y="370" width="30" height="60" as="geometry" />
        </mxCell>
        <mxCell id="_rqUwPPVyV0f_OZzev6--31" value="" style="endArrow=none;html=1;rounded=0;fontSize=22;exitX=1;exitY=0.5;exitDx=0;exitDy=0;exitPerimeter=0;entryX=0;entryY=0.5;entryDx=0;entryDy=0;entryPerimeter=0;" edge="1" parent="1" source="_rqUwPPVyV0f_OZzev6--12" target="_rqUwPPVyV0f_OZzev6--1">
          <mxGeometry width="50" height="50" relative="1" as="geometry">
            <mxPoint x="410" y="330" as="sourcePoint" />
            <mxPoint x="460" y="280" as="targetPoint" />
          </mxGeometry>
        </mxCell>
        <mxCell id="_rqUwPPVyV0f_OZzev6--32" value="" style="endArrow=none;html=1;rounded=0;fontSize=22;exitX=1;exitY=0.5;exitDx=0;exitDy=0;exitPerimeter=0;entryX=0;entryY=0.5;entryDx=0;entryDy=0;entryPerimeter=0;" edge="1" parent="1" source="_rqUwPPVyV0f_OZzev6--16" target="_rqUwPPVyV0f_OZzev6--12">
          <mxGeometry width="50" height="50" relative="1" as="geometry">
            <mxPoint x="410" y="330" as="sourcePoint" />
            <mxPoint x="460" y="280" as="targetPoint" />
          </mxGeometry>
        </mxCell>
        <mxCell id="_rqUwPPVyV0f_OZzev6--33" value="" style="endArrow=none;html=1;rounded=0;fontSize=22;exitX=1;exitY=0.5;exitDx=0;exitDy=0;exitPerimeter=0;entryX=0;entryY=0.5;entryDx=0;entryDy=0;entryPerimeter=0;" edge="1" parent="1" source="_rqUwPPVyV0f_OZzev6--19" target="_rqUwPPVyV0f_OZzev6--16">
          <mxGeometry width="50" height="50" relative="1" as="geometry">
            <mxPoint x="410" y="330" as="sourcePoint" />
            <mxPoint x="460" y="280" as="targetPoint" />
          </mxGeometry>
        </mxCell>
        <mxCell id="_rqUwPPVyV0f_OZzev6--34" value="" style="endArrow=none;html=1;rounded=0;fontSize=22;exitX=0.1;exitY=1;exitDx=0;exitDy=0;exitPerimeter=0;entryX=0.5;entryY=0;entryDx=0;entryDy=0;entryPerimeter=0;" edge="1" parent="1" source="_rqUwPPVyV0f_OZzev6--19" target="_rqUwPPVyV0f_OZzev6--29">
          <mxGeometry width="50" height="50" relative="1" as="geometry">
            <mxPoint x="410" y="330" as="sourcePoint" />
            <mxPoint x="460" y="280" as="targetPoint" />
          </mxGeometry>
        </mxCell>
        <mxCell id="_rqUwPPVyV0f_OZzev6--35" value="" style="endArrow=none;html=1;rounded=0;fontSize=22;exitX=0.5;exitY=0;exitDx=0;exitDy=0;exitPerimeter=0;entryX=0.5;entryY=1;entryDx=0;entryDy=0;entryPerimeter=0;" edge="1" parent="1" source="_rqUwPPVyV0f_OZzev6--28" target="_rqUwPPVyV0f_OZzev6--19">
          <mxGeometry width="50" height="50" relative="1" as="geometry">
            <mxPoint x="410" y="330" as="sourcePoint" />
            <mxPoint x="460" y="280" as="targetPoint" />
          </mxGeometry>
        </mxCell>
        <mxCell id="_rqUwPPVyV0f_OZzev6--36" value="" style="endArrow=none;html=1;rounded=0;fontSize=22;exitX=0.55;exitY=0;exitDx=0;exitDy=0;exitPerimeter=0;entryX=0.5;entryY=1;entryDx=0;entryDy=0;entryPerimeter=0;" edge="1" parent="1" source="_rqUwPPVyV0f_OZzev6--24" target="_rqUwPPVyV0f_OZzev6--19">
          <mxGeometry width="50" height="50" relative="1" as="geometry">
            <mxPoint x="410" y="330" as="sourcePoint" />
            <mxPoint x="460" y="280" as="targetPoint" />
          </mxGeometry>
        </mxCell>
        <mxCell id="_rqUwPPVyV0f_OZzev6--37" value="" style="endArrow=none;html=1;rounded=0;fontSize=22;entryX=1;entryY=0.5;entryDx=0;entryDy=0;entryPerimeter=0;exitX=0;exitY=0.5;exitDx=0;exitDy=0;exitPerimeter=0;" edge="1" parent="1" source="_rqUwPPVyV0f_OZzev6--13" target="_rqUwPPVyV0f_OZzev6--2">
          <mxGeometry width="50" height="50" relative="1" as="geometry">
            <mxPoint x="410" y="330" as="sourcePoint" />
            <mxPoint x="460" y="280" as="targetPoint" />
          </mxGeometry>
        </mxCell>
        <mxCell id="_rqUwPPVyV0f_OZzev6--38" value="" style="endArrow=none;html=1;rounded=0;fontSize=22;entryX=1;entryY=0.5;entryDx=0;entryDy=0;entryPerimeter=0;exitX=0;exitY=0.5;exitDx=0;exitDy=0;exitPerimeter=0;" edge="1" parent="1" source="_rqUwPPVyV0f_OZzev6--17" target="_rqUwPPVyV0f_OZzev6--13">
          <mxGeometry width="50" height="50" relative="1" as="geometry">
            <mxPoint x="410" y="330" as="sourcePoint" />
            <mxPoint x="460" y="280" as="targetPoint" />
          </mxGeometry>
        </mxCell>
        <mxCell id="_rqUwPPVyV0f_OZzev6--39" value="" style="endArrow=none;html=1;rounded=0;fontSize=22;entryX=1;entryY=0.5;entryDx=0;entryDy=0;entryPerimeter=0;exitX=0;exitY=0.5;exitDx=0;exitDy=0;exitPerimeter=0;" edge="1" parent="1" source="_rqUwPPVyV0f_OZzev6--18" target="_rqUwPPVyV0f_OZzev6--17">
          <mxGeometry width="50" height="50" relative="1" as="geometry">
            <mxPoint x="410" y="330" as="sourcePoint" />
            <mxPoint x="460" y="280" as="targetPoint" />
          </mxGeometry>
        </mxCell>
        <mxCell id="_rqUwPPVyV0f_OZzev6--40" value="" style="endArrow=none;html=1;rounded=0;fontSize=22;entryX=0.5;entryY=1;entryDx=0;entryDy=0;entryPerimeter=0;exitX=0.5;exitY=0;exitDx=0;exitDy=0;exitPerimeter=0;" edge="1" parent="1" source="_rqUwPPVyV0f_OZzev6--27" target="_rqUwPPVyV0f_OZzev6--18">
          <mxGeometry width="50" height="50" relative="1" as="geometry">
            <mxPoint x="410" y="330" as="sourcePoint" />
            <mxPoint x="460" y="280" as="targetPoint" />
          </mxGeometry>
        </mxCell>
        <mxCell id="_rqUwPPVyV0f_OZzev6--43" value="&lt;b&gt;&lt;font style=&quot;font-size: 22px;&quot;&gt;外部终端&lt;/font&gt;&lt;/b&gt;" style="fontColor=#0066CC;verticalAlign=top;verticalLabelPosition=bottom;labelPosition=center;align=center;html=1;outlineConnect=0;fillColor=#CCCCCC;strokeColor=#6881B3;gradientColor=none;gradientDirection=north;strokeWidth=2;shape=mxgraph.networks.pc;fontSize=22;" vertex="1" parent="1">
          <mxGeometry x="460" y="1100" width="100" height="70" as="geometry" />
        </mxCell>
        <mxCell id="_rqUwPPVyV0f_OZzev6--44" value="" style="endArrow=none;html=1;rounded=0;fontSize=22;entryX=0.5;entryY=1;entryDx=0;entryDy=0;entryPerimeter=0;exitX=0.5;exitY=0.07;exitDx=0;exitDy=0;exitPerimeter=0;" edge="1" parent="1" source="_rqUwPPVyV0f_OZzev6--43" target="_rqUwPPVyV0f_OZzev6--3">
          <mxGeometry width="50" height="50" relative="1" as="geometry">
            <mxPoint x="410" y="990" as="sourcePoint" />
            <mxPoint x="460" y="940" as="targetPoint" />
          </mxGeometry>
        </mxCell>
        <mxCell id="_rqUwPPVyV0f_OZzev6--45" value="&lt;font style=&quot;font-size: 52px;&quot;&gt;家2&lt;/font&gt;" style="text;html=1;strokeColor=none;fillColor=none;align=center;verticalAlign=middle;whiteSpace=wrap;rounded=0;" vertex="1" parent="1">
          <mxGeometry x="760" y="580" width="170" height="30" as="geometry" />
        </mxCell>
      </root>
    </mxGraphModel>
  </diagram>
</mxfile>
